<svg width="1084" height="564" viewBox="0 0 1084 564" fill="none" xmlns="http://www.w3.org/2000/svg">
<path d="M695.175 150.383C695.175 80.5836 631.872 24 553.783 24C475.695 24 412.392 80.5836 412.392 150.383" stroke="#7A7A7A" stroke-width="47.1489"/>
<path d="M157.884 360.943L215.9 370.682C208.441 391.954 196.63 408.184 180.469 419.373C164.446 430.424 144.348 435.949 120.175 435.949C81.9121 435.949 53.5951 423.448 35.2236 398.446C20.7197 378.417 13.4678 353.139 13.4678 322.612C13.4678 286.145 22.9989 257.621 42.0611 237.039C61.1232 216.32 85.2272 205.96 114.373 205.96C147.11 205.96 172.941 216.803 191.865 238.49C210.789 260.038 219.837 293.121 219.008 337.737H73.1407C73.5551 355.004 78.2516 368.472 87.2301 378.141C96.2087 387.672 107.397 392.437 120.796 392.437C129.913 392.437 137.579 389.951 143.795 384.978C150.011 380.005 154.707 371.994 157.884 360.943ZM161.2 302.099C160.785 285.247 156.434 272.47 148.146 263.768C139.858 254.927 129.775 250.507 117.895 250.507C105.187 250.507 94.6892 255.134 86.4013 264.389C78.1134 273.644 74.0386 286.214 74.1767 302.099H161.2ZM410.458 514.684V404.04C402.861 413.848 393.399 421.652 382.072 427.454C370.745 433.117 358.521 435.949 345.398 435.949C320.396 435.949 299.815 426.556 283.653 407.77C264.591 385.807 255.06 356.04 255.06 318.468C255.06 283.106 263.97 255.549 281.789 235.796C299.746 215.905 321.985 205.96 348.506 205.96C363.148 205.96 375.787 209.068 386.423 215.284C397.198 221.499 406.729 230.892 415.017 243.462V210.932H468.681V514.684H410.458ZM412.323 318.261C412.323 295.745 407.696 279.031 398.441 268.119C389.324 257.068 377.859 251.543 364.046 251.543C349.957 251.543 338.146 257.137 328.615 268.326C319.222 279.515 314.526 297.265 314.526 321.576C314.526 345.749 319.084 363.223 328.201 373.997C337.317 384.633 348.575 389.951 361.974 389.951C375.373 389.951 387.114 383.942 397.198 371.925C407.281 359.907 412.323 342.019 412.323 318.261Z" fill="#58C88C"/>
<path d="M646.206 368.195L704.635 359.286C707.122 370.613 712.164 379.246 719.761 385.185C727.358 390.987 737.994 393.888 751.669 393.888C766.726 393.888 778.052 391.125 785.65 385.6C790.76 381.732 793.316 376.552 793.316 370.06C793.316 365.64 791.935 361.979 789.172 359.079C786.271 356.316 779.779 353.76 769.695 351.412C722.731 341.052 692.963 331.59 680.393 323.026C662.989 311.147 654.286 294.64 654.286 273.506C654.286 254.444 661.815 238.421 676.871 225.436C691.927 212.452 715.272 205.96 746.904 205.96C777.016 205.96 799.394 210.863 814.036 220.671C828.678 230.478 838.761 244.982 844.287 264.182L789.379 274.335C787.031 265.771 782.542 259.209 775.911 254.651C769.419 250.093 760.095 247.814 747.94 247.814C732.607 247.814 721.626 249.955 714.995 254.237C710.575 257.276 708.365 261.212 708.365 266.047C708.365 270.191 710.299 273.713 714.166 276.614C719.416 280.482 737.511 285.938 768.452 292.983C799.532 300.027 821.219 308.661 833.512 318.882C845.668 329.242 851.746 343.677 851.746 362.187C851.746 382.354 843.32 399.689 826.468 414.193C809.615 428.697 784.683 435.949 751.669 435.949C721.695 435.949 697.936 429.871 680.393 417.715C662.989 405.56 651.593 389.053 646.206 368.195ZM958.66 430.976H900.437V210.932H954.516V242.219C963.77 227.439 972.058 217.701 979.379 213.004C986.838 208.308 995.264 205.96 1004.66 205.96C1017.92 205.96 1030.7 209.62 1042.99 216.941L1024.96 267.704C1015.16 261.35 1006.04 258.173 997.613 258.173C989.463 258.173 982.556 260.453 976.893 265.011C971.229 269.431 966.74 277.512 963.425 289.253C960.248 300.994 958.66 325.582 958.66 363.015V430.976Z" fill="#58C88C"/>
<path d="M531.081 430.976V127.225H589.303V430.976H531.081Z" fill="#58C88C"/>
</svg>
